{
  "accessors": [
    {
      "name": "Node-Mesh_0_positions",
      "componentType": 5126,
      "count": 10701,
      "min": [
        0.07393880188465118,
        -1.8446600437164307,
        -0.057797499001026154
      ],
      "max": [
        0.44734901189804077,
        -0.005057329777628183,
        0.5352650284767151
      ],
      "type": "VEC3",
      "bufferView": 0,
      "byteOffset": 0
    },
    {
      "name": "Node-Mesh_0_texcoords",
      "componentType": 5126,
      "count": 10701,
      "min": [
        0.0002459530078340322,
        0.0008040000102482736
      ],
      "max": [
        0.9674839973449707,
        0.999335527420044
      ],
      "type": "VEC2",
      "bufferView": 1,
      "byteOffset": 0
    },
    {
      "name": "Node-Mesh_0_indices",
      "componentType": 5123,
      "count": 60000,
      "min": [
        0
      ],
      "max": [
        10700
      ],
      "type": "SCALAR",
      "bufferView": 2,
      "byteOffset": 0
    }
  ],
  "asset": {
    "generator": "obj2gltf",
    "version": "2.0"
  },
  "buffers": [
    {
      "name": "20191201-set04-zhao",
      "byteLength": 564708,
      "uri": "data:application/octet-stream;base64,"
    }
  ],
  "bufferViews": [
    {
      "name": "bufferView_0",
      "buffer": 0,
      "byteLength": 128412,
      "byteOffset": 0,
      "byteStride": 12,
      "target": 34962
    },
    {
      "name": "bufferView_1",
      "buffer": 0,
      "byteLength": 85608,
      "byteOffset": 128412,
      "byteStride": 8,
      "target": 34962
    },
    {
      "name": "bufferView_2",
      "buffer": 0,
      "byteLength": 120000,
      "byteOffset": 214020,
      "target": 34963
    },
    {
      "buffer": 0,
      "byteOffset": 334020,
      "byteLength": 230687
    }
  ],
  "images": [
    {
      "name": "20191201-set04-zhao",
      "mimeType": "image/jpeg",
      "bufferView": 3
    }
  ],
  "materials": [
    {
      "name": "material_0",
      "pbrMetallicRoughness": {
        "baseColorTexture": {
          "index": 0,
          "texCoord": 0
        },
        "baseColorFactor": [
          1,
          1,
          1,
          1
        ],
        "metallicFactor": 0,
        "roughnessFactor": 1
      },
      "emissiveFactor": [
        0,
        0,
        0
      ],
      "alphaMode": "OPAQUE",
      "doubleSided": false
    }
  ],
  "meshes": [
    {
      "name": "Node-Mesh",
      "primitives": [
        {
          "attributes": {
            "POSITION": 0,
            "TEXCOORD_0": 1
          },
          "indices": 2,
          "material": 0,
          "mode": 4
        }
      ]
    }
  ],
  "nodes": [
    {
      "name": "Node",
      "mesh": 0
    }
  ],
  "samplers": [
    {
      "magFilter": 9729,
      "minFilter": 9986,
      "wrapS": 10497,
      "wrapT": 10497
    }
  ],
  "scene": 0,
  "scenes": [
    {
      "nodes": [
        0
      ]
    }
  ],
  "textures": [
    {
      "name": "20191201-set04-zhao",
      "sampler": 0,
      "source": 0
    }
  ]
}
